<svg width="35" height="35" viewBox="0 0 35 35" fill="none" xmlns="http://www.w3.org/2000/svg">
<circle cx="17.5" cy="17.5" r="17.5" fill="#EB3F5E"/>
<path d="M11.6716 25.0056C11.2467 25.0056 10.8218 24.8491 10.4864 24.5136C9.83788 23.8651 9.83788 22.7918 10.4864 22.1433L23.1433 9.48637C23.7918 8.83788 24.8651 8.83788 25.5136 9.48637C26.1621 10.1349 26.1621 11.2082 25.5136 11.8567L12.8567 24.5136C12.5437 24.8491 12.0964 25.0056 11.6716 25.0056Z" fill="#F9F9F9"/>
<path d="M24.3284 25.0056C23.9036 25.0056 23.4787 24.8491 23.1433 24.5136L10.4864 11.8567C9.83788 11.2082 9.83788 10.1349 10.4864 9.48637C11.1349 8.83788 12.2082 8.83788 12.8567 9.48637L25.5136 22.1433C26.1621 22.7918 26.1621 23.8651 25.5136 24.5136C25.1782 24.8491 24.7533 25.0056 24.3284 25.0056Z" fill="#F9F9F9"/>
</svg>
